Demolition Man (1993) 
  115 min   -  Action | Crime | Sci-Fi  -   8 October 1993 (USA) 
 6.5 
Your rating:  
 










-/10
   
 Ratings: 6.5/10 from 78,553 users   Metascore:  34/100 
 Reviews: 188 user | 68 critic |  9  from  Metacritic.com 


 A cop is brought out of suspended animation in prison to pursue an old ultra-violent enemy who is loose in a nonviolent future society.



=======================================================================



E:DEMOLITION_MAN_16X9DEMOLITION_MAN.mp4
   General
      Complete name : E:DEMOLITION_MAN_16X9DEMOLITION_MAN.mp4
      Format : MPEG-4
      Format profile : Base Media
      Codec ID : isom
      File size : 1.00 GiB
      Duration : 1h 54mn
      Overall bit rate : 1 247 Kbps
      Movie name : DEMOLITION_MAN
      Album : DEMOLITION_MAN_16X9
      Writing application : Lavf52.78.4
   Video #1
      ID : 1
      Format : AVC
      Format/Info : Advanced Video Codec
      Format profile : Main@L3.0
      Format settings, CABAC : Yes
      Format settings, ReFrames : 1 frame
      Codec ID : avc1
      Codec ID/Info : Advanced Video Coding
      Duration : 1h 54mn
      Bit rate mode : Variable
      Bit rate : 924 Kbps
      Width : 720 pixels
      Height : 316 pixels
      Display aspect ratio : 2.25:1
      Frame rate mode : Constant
      Frame rate : 23.976 fps
      Resolution : 24 bits
      Colorimetry : 4:2:0
      Scan type : Progressive
      Bits/(Pixel*Frame) : 0.169
      Stream size : 760 MiB (74%)
      Writing library : x264 core
      colour_primaries : BT.601-6 525, BT.1358 525, BT.1700 NTSC, SMPTE 170M
      transfer_characteristics : BT.709-5, BT.1361
      matrix_coefficients : BT.601-6 525, BT.1358 525, BT.1700 NTSC, SMPTE 170M
   Audio #2
      ID : 2
      Format : MPEG Audio
      Format version : Version 1
      Format profile : Layer 3
      Codec ID : 6B
      Duration : 1h 54mn
      Bit rate mode : Constant
      Bit rate : 320 Kbps
      Channel(s) : 2 channels
      Sampling rate : 48.0 KHz
      Resolution : 16 bits
      Stream size : 263 MiB (26%)